<svg width="239" height="317" viewBox="0 0 239 317" fill="none" xmlns="http://www.w3.org/2000/svg">
<path d="M93.0305 171.766C106.873 145.731 124.72 125.015 142.363 112.56C160.031 100.087 177.356 95.9834 190.267 102.848C203.178 109.713 209.464 126.371 209.003 147.994C208.543 169.585 201.349 195.965 187.506 221.999C173.663 248.033 155.816 268.749 138.174 281.204C120.505 293.678 103.181 297.781 90.2694 290.916C77.3583 284.051 71.0724 267.394 71.5334 245.771C71.9936 224.18 79.1877 197.8 93.0305 171.766Z" stroke="#44FFA1"/>
<path d="M57.0305 152.766C70.8732 126.731 88.7204 106.015 106.363 93.5603C124.031 81.0868 141.356 76.9834 154.267 83.8483C167.178 90.7133 173.464 107.371 173.003 128.994C172.543 150.585 165.349 176.965 151.506 202.999C137.663 229.033 119.816 249.749 102.174 262.204C84.5051 274.678 67.1805 278.781 54.2694 271.916C41.3583 265.051 35.0724 248.394 35.5334 226.771C35.9936 205.18 43.1877 178.8 57.0305 152.766Z" stroke="#44FFA1"/>
<path opacity="0.75" d="M22.9135 134.235C36.7569 108.199 54.5062 87.4303 71.9902 74.8901C89.5025 62.3296 106.604 58.1153 119.267 64.8483C131.93 71.5813 137.999 88.1158 137.379 109.658C136.759 131.165 129.466 157.494 115.623 183.529C101.78 209.565 84.0304 230.334 66.5464 242.874C49.0341 255.435 31.9325 259.649 19.2696 252.916C6.60664 246.183 0.537374 229.649 1.15774 208.107C1.7771 186.599 9.07019 160.271 22.9135 134.235Z" stroke="#44FFA1"/>
<path opacity="0.5" d="M-13.9695 113.766C-0.126795 87.7311 17.7204 67.0154 35.3627 54.5603C53.0312 42.0868 70.3558 37.9834 83.2669 44.8483C96.178 51.7133 102.464 68.3706 102.003 89.9936C101.543 111.585 94.3486 137.965 80.5059 163.999C66.6631 190.033 48.816 210.749 31.1736 223.204C13.5051 235.678 -3.81947 239.781 -16.7306 232.916C-29.6417 226.051 -35.9276 209.394 -35.4666 187.771C-35.0064 166.18 -27.8123 139.8 -13.9695 113.766Z" stroke="#44FFA1"/>
<path opacity="0.25" d="M-50.0865 95.235C-36.2431 69.1994 -18.4938 48.4303 -1.0098 35.8901C16.5025 23.3296 33.6041 19.1153 46.267 25.8483C58.9299 32.5813 64.9992 49.1158 64.3788 70.6579C63.7595 92.1651 56.4664 118.494 42.623 144.529C28.7797 170.565 11.0304 191.334 -6.45362 203.874C-23.9659 216.435 -41.0675 220.649 -53.7304 213.916C-66.3934 207.183 -72.4626 190.649 -71.8423 169.107C-71.2229 147.599 -63.9298 121.271 -50.0865 95.235Z" stroke="#44FFA1"/>
</svg>
