<svg width="20" height="21" viewBox="0 0 20 21" fill="none" xmlns="http://www.w3.org/2000/svg">
<path d="M18.8958 0.608032H1.10417C0.494167 0.608032 0 1.1022 0 1.7122V19.5047C0 20.1139 0.494167 20.608 1.10417 20.608H10.6833V12.863H8.07667V9.8447H10.6833V7.61887C10.6833 5.03553 12.2608 3.62887 14.5658 3.62887C15.67 3.62887 16.6183 3.71137 16.895 3.74803V6.44803L15.2967 6.44887C14.0433 6.44887 13.8008 7.0447 13.8008 7.91803V9.84553H16.79L16.4008 12.8639H13.8008V20.608H18.8975C19.5058 20.608 20 20.1139 20 19.5039V1.7122C20 1.1022 19.5058 0.608032 18.8958 0.608032Z" fill="#584D62"/>
</svg>
