<svg width="20" height="21" viewBox="0 0 20 21" fill="none" xmlns="http://www.w3.org/2000/svg">
<path fill-rule="evenodd" clip-rule="evenodd" d="M10 0.608032C7.28417 0.608032 6.94417 0.619699 5.8775 0.668032C2.24583 0.834699 0.2275 2.8497 0.0608333 6.4847C0.0116667 7.5522 0 7.8922 0 10.608C0 13.3239 0.0116667 13.6647 0.06 14.7314C0.226667 18.363 2.24167 20.3814 5.87667 20.548C6.94417 20.5964 7.28417 20.608 10 20.608C12.7158 20.608 13.0567 20.5964 14.1233 20.548C17.7517 20.3814 19.775 18.3664 19.9392 14.7314C19.9883 13.6647 20 13.3239 20 10.608C20 7.8922 19.9883 7.5522 19.94 6.48553C19.7767 2.8572 17.7592 0.835532 14.1242 0.668866C13.0567 0.619699 12.7158 0.608032 10 0.608032ZM10 2.41053C12.67 2.41053 12.9867 2.42053 14.0417 2.46887C16.7517 2.5922 18.0175 3.87803 18.1408 6.56803C18.1892 7.6222 18.1983 7.93887 18.1983 10.6089C18.1983 13.2797 18.1883 13.5955 18.1408 14.6497C18.0167 17.3372 16.7542 18.6255 14.0417 18.7489C12.9867 18.7972 12.6717 18.8072 10 18.8072C7.33 18.8072 7.01333 18.7972 5.95917 18.7489C3.2425 18.6247 1.98333 17.333 1.86 14.6489C1.81167 13.5947 1.80167 13.2789 1.80167 10.608C1.80167 7.93803 1.8125 7.6222 1.86 6.5672C1.98417 3.87803 3.24667 2.59137 5.95917 2.46803C7.01417 2.42053 7.33 2.41053 10 2.41053ZM4.865 10.608C4.865 7.7722 7.16417 5.47303 10 5.47303C12.8358 5.47303 15.135 7.7722 15.135 10.608C15.135 13.4447 12.8358 15.7439 10 15.7439C7.16417 15.7439 4.865 13.4439 4.865 10.608ZM10 13.9414C8.15917 13.9414 6.66667 12.4497 6.66667 10.608C6.66667 8.7672 8.15917 7.2747 10 7.2747C11.8408 7.2747 13.3333 8.7672 13.3333 10.608C13.3333 12.4497 11.8408 13.9414 10 13.9414ZM14.1375 5.27053C14.1375 4.60803 14.675 4.07053 15.3383 4.07053C16.0008 4.07053 16.5375 4.60803 16.5375 5.27053C16.5375 5.93303 16.0008 6.47053 15.3383 6.47053C14.675 6.47053 14.1375 5.93303 14.1375 5.27053Z" fill="#584D62"/>
</svg>
