<svg width="20" height="21" viewBox="0 0 20 21" fill="none" xmlns="http://www.w3.org/2000/svg">
<path d="M20 4.40549C19.2642 4.73216 18.4733 4.95216 17.6433 5.05132C18.4908 4.54382 19.1417 3.73966 19.4475 2.78132C18.655 3.25132 17.7767 3.59299 16.8417 3.77716C16.0942 2.97966 15.0267 2.48132 13.8467 2.48132C11.1975 2.48132 9.25083 4.95299 9.84917 7.51882C6.44 7.34799 3.41667 5.71466 1.3925 3.23216C0.3175 5.07632 0.835 7.48882 2.66167 8.71049C1.99 8.68882 1.35667 8.50466 0.804167 8.19716C0.759167 10.098 2.12167 11.8763 4.095 12.2722C3.5175 12.4288 2.885 12.4655 2.24167 12.3422C2.76333 13.9722 4.27833 15.158 6.075 15.1913C4.35 16.5438 2.17667 17.148 0 16.8913C1.81583 18.0555 3.97333 18.7347 6.29 18.7347C13.9083 18.7347 18.2125 12.3005 17.9525 6.52966C18.7542 5.95049 19.45 5.22799 20 4.40549Z" fill="#584D62"/>
</svg>
