<svg width="96" height="25" viewBox="0 0 96 25" fill="none" xmlns="http://www.w3.org/2000/svg">
<path fill-rule="evenodd" clip-rule="evenodd" d="M66.9227 24.42V19.076L68.8427 16.964L73.2907 24.42H78.7307L72.4267 13.988L78.7627 6.94804H72.8427L66.9227 13.252V0.196045H62.1227V24.42H66.9227ZM43.2036 23.62C41.7956 24.4094 40.2276 24.804 38.4996 24.804C36.7716 24.804 35.1982 24.4094 33.7796 23.62C32.3609 22.8307 31.2302 21.748 30.3876 20.372C29.5449 18.996 29.1236 17.4334 29.1236 15.684C29.1236 13.9134 29.5449 12.3454 30.3876 10.98C31.2302 9.61471 32.3609 8.53738 33.7796 7.74804C35.1982 6.95871 36.7716 6.56404 38.4996 6.56404C40.2276 6.56404 41.7956 6.95871 43.2036 7.74804C44.6116 8.53738 45.7369 9.61471 46.5796 10.98C47.4222 12.3454 47.8436 13.9134 47.8436 15.684C47.8436 17.4334 47.4222 18.996 46.5796 20.372C45.7369 21.748 44.6116 22.8307 43.2036 23.62ZM14.24 13.22L10.176 24.42H6.016L0 6.94804H4.96L8.352 17.092L12.16 6.94804H16.32L20.096 17.092L23.488 6.94804H28.48L22.432 24.42H18.272L14.24 13.22ZM38.4996 20.484C37.1982 20.484 36.1369 20.036 35.3156 19.14C34.4942 18.244 34.0836 17.092 34.0836 15.684C34.0836 14.2974 34.4942 13.1507 35.3156 12.244C36.1369 11.3374 37.1982 10.884 38.4996 10.884C39.8009 10.884 40.8569 11.3374 41.6676 12.244C42.4782 13.1507 42.8836 14.2974 42.8836 15.684C42.8836 17.092 42.4782 18.244 41.6676 19.14C40.8569 20.036 39.8009 20.484 38.4996 20.484ZM55.0151 15.012V24.42H50.2151V6.94804H54.6951V9.57204C55.1431 8.48405 55.7778 7.74271 56.5991 7.34804C57.4204 6.95338 58.3644 6.75604 59.4311 6.75604H60.4551V10.916H58.9511C57.7778 10.916 56.8284 11.2734 56.1031 11.988C55.3778 12.7027 55.0151 13.7107 55.0151 15.012ZM83.2462 0.580045V4.10004H81.3262V0.580045H83.2462ZM83.2462 24.42V7.42804H81.3262V24.42H83.2462ZM94.9618 24.58C94.6631 24.6014 94.4284 24.612 94.2578 24.612C92.8284 24.612 91.7351 24.212 90.9778 23.412C90.2204 22.612 89.8418 21.444 89.8418 19.908V9.25204H86.6418V7.42804H87.8578C88.4764 7.42804 88.9618 7.23604 89.3138 6.85205C89.6658 6.46804 89.8418 5.94538 89.8418 5.28404V3.46004H91.7618V7.42804H95.4738V9.25204H91.7618V19.908C91.7618 20.3774 91.8311 20.836 91.9698 21.284C92.1084 21.732 92.3804 22.0947 92.7858 22.372C93.1911 22.6494 93.7778 22.788 94.5458 22.788C94.7164 22.788 94.9244 22.7774 95.1698 22.756C95.4151 22.7347 95.6124 22.7134 95.7618 22.692V24.452C95.5271 24.516 95.2604 24.5587 94.9618 24.58Z" fill="white"/>
</svg>
