<svg width="96" height="25" viewBox="0 0 96 25" fill="none" xmlns="http://www.w3.org/2000/svg">
<path fill-rule="evenodd" clip-rule="evenodd" d="M67.0418 24.224V18.88L68.9618 16.768L73.4098 24.224H78.8498L72.5458 13.792L78.8818 6.752H72.9618L67.0418 13.056V0H62.2418V24.224H67.0418ZM43.3227 23.424C41.9147 24.2133 40.3467 24.608 38.6187 24.608C36.8907 24.608 35.3174 24.2133 33.8987 23.424C32.48 22.6347 31.3494 21.552 30.5067 20.176C29.664 18.8 29.2427 17.2373 29.2427 15.488C29.2427 13.7173 29.664 12.1493 30.5067 10.784C31.3494 9.41867 32.48 8.34133 33.8987 7.552C35.3174 6.76267 36.8907 6.368 38.6187 6.368C40.3467 6.368 41.9147 6.76267 43.3227 7.552C44.7307 8.34133 45.856 9.41867 46.6987 10.784C47.5414 12.1493 47.9627 13.7173 47.9627 15.488C47.9627 17.2373 47.5414 18.8 46.6987 20.176C45.856 21.552 44.7307 22.6347 43.3227 23.424ZM14.3591 13.024L10.2951 24.224H6.13514L0.119141 6.752H5.07914L8.47114 16.896L12.2791 6.752H16.4391L20.2151 16.896L23.6071 6.752H28.5991L22.5511 24.224H18.3911L14.3591 13.024ZM38.6187 20.288C37.3174 20.288 36.256 19.84 35.4347 18.944C34.6134 18.048 34.2027 16.896 34.2027 15.488C34.2027 14.1013 34.6134 12.9547 35.4347 12.048C36.256 11.1413 37.3174 10.688 38.6187 10.688C39.92 10.688 40.976 11.1413 41.7867 12.048C42.5974 12.9547 43.0027 14.1013 43.0027 15.488C43.0027 16.896 42.5974 18.048 41.7867 18.944C40.976 19.84 39.92 20.288 38.6187 20.288ZM55.1343 14.816V24.224H50.3343V6.752H54.8143V9.376C55.2623 8.288 55.8969 7.54667 56.7183 7.152C57.5396 6.75733 58.4836 6.56 59.5503 6.56H60.5742V10.72H59.0703C57.8969 10.72 56.9476 11.0773 56.2223 11.792C55.4969 12.5067 55.1343 13.5147 55.1343 14.816ZM83.3654 0.384V3.904H81.4454V0.384H83.3654ZM83.3654 24.224V7.232H81.4454V24.224H83.3654ZM95.0809 24.384C94.7822 24.4053 94.5476 24.416 94.3769 24.416C92.9476 24.416 91.8542 24.016 91.0969 23.216C90.3396 22.416 89.9609 21.248 89.9609 19.712V9.056H86.7609V7.232H87.9769C88.5956 7.232 89.0809 7.04 89.4329 6.656C89.7849 6.272 89.9609 5.74933 89.9609 5.088V3.264H91.8809V7.232H95.5929V9.056H91.8809V19.712C91.8809 20.1813 91.9502 20.64 92.0889 21.088C92.2276 21.536 92.4996 21.8987 92.9049 22.176C93.3102 22.4533 93.8969 22.592 94.6649 22.592C94.8356 22.592 95.0436 22.5813 95.2889 22.56C95.5342 22.5387 95.7316 22.5173 95.8809 22.496V24.256C95.6462 24.32 95.3796 24.3627 95.0809 24.384Z" fill="#24053E"/>
</svg>
